# Blender v2.80 (sub 75) OBJ File: ''
# www.blender.org
mtllib textbox.mtl
o Cube
v 2.292743 4.915329 0.104496
v 2.290778 4.915745 0.095525
v 2.271976 2.913988 0.101978
v 2.265640 2.915910 0.090577
v -0.959740 4.956112 0.144919
v -0.961705 4.956529 0.135948
v -0.989223 2.954881 0.142509
v -0.986843 2.956693 0.130999
v 1.469078 0.559525 -0.864527
v 1.469078 3.550267 -0.864528
v 1.469078 0.559525 -1.091625
v 1.469078 3.550267 -1.091626
v 1.934373 0.557330 -0.861255
v 1.933966 3.562993 -0.861256
v 1.934374 0.557330 -1.088353
v 1.934374 3.548072 -1.088353
v -0.592667 3.378132 -0.028171
v -0.600653 3.553550 -0.030784
v -0.597899 3.400790 -0.861216
v -0.597899 3.567988 -0.861216
v 1.907168 3.381734 -0.028171
v 1.911870 3.553598 -0.028171
v 1.936819 3.400791 -0.861217
v 1.936819 3.546577 -0.861216
v -0.586581 0.514139 -0.842927
v -0.586581 3.552452 -0.842927
v -0.586581 0.514138 -1.067415
v -0.586581 3.552452 -1.067415
v -0.093383 0.514139 -0.842927
v -0.093383 3.552452 -0.842927
v -0.093383 0.514138 -1.067414
v -0.093383 3.552452 -1.067415
vt 0.375000 0.000000
vt 0.625000 0.000000
vt 0.625000 0.250000
vt 0.375000 0.250000
vt 0.375000 0.250000
vt 0.625000 0.250000
vt 0.625000 0.500000
vt 0.375000 0.500000
vt 0.625000 0.750000
vt 0.375000 0.750000
vt 0.625000 0.750000
vt 0.625000 1.000000
vt 0.375000 1.000000
vt 0.125000 0.500000
vt 0.375000 0.500000
vt 0.375000 0.750000
vt 0.125000 0.750000
vt 0.625000 0.500000
vt 0.875000 0.500000
vt 0.875000 0.750000
vt 0.375000 0.000000
vt 0.625000 0.000000
vt 0.625000 0.250000
vt 0.375000 0.250000
vt 0.625000 0.500000
vt 0.375000 0.500000
vt 0.625000 0.750000
vt 0.375000 0.750000
vt 0.625000 1.000000
vt 0.375000 1.000000
vt 0.125000 0.500000
vt 0.125000 0.750000
vt 0.875000 0.500000
vt 0.875000 0.750000
vt 0.375000 0.000000
vt 0.625000 0.000000
vt 0.625000 0.250000
vt 0.375000 0.250000
vt 0.625000 0.500000
vt 0.375000 0.500000
vt 0.625000 0.750000
vt 0.375000 0.750000
vt 0.625000 1.000000
vt 0.375000 1.000000
vt 0.125000 0.500000
vt 0.125000 0.750000
vt 0.875000 0.500000
vt 0.875000 0.750000
vt 0.375000 0.000000
vt 0.625000 0.000000
vt 0.625000 0.250000
vt 0.375000 0.250000
vt 0.625000 0.500000
vt 0.375000 0.500000
vt 0.625000 0.750000
vt 0.375000 0.750000
vt 0.625000 1.000000
vt 0.375000 1.000000
vt 0.125000 0.500000
vt 0.125000 0.750000
vt 0.875000 0.500000
vt 0.875000 0.750000
vn 0.0124 -0.0014 0.9999
vn -0.0143 -0.9873 -0.1584
vn -0.9997 0.0137 -0.0188
vn -0.0124 0.0026 -0.9999
vn 0.9256 -0.0099 -0.3783
vn 0.0131 0.9990 0.0436
vn -1.0000 0.0000 0.0000
vn 0.0070 -0.0000 -1.0000
vn 1.0000 0.0001 0.0009
vn -0.0070 -0.0000 1.0000
vn -0.0047 -1.0000 -0.0000
vn -0.0111 0.9994 -0.0328
vn -0.9997 -0.0233 0.0010
vn -0.0000 0.0000 -1.0000
vn 0.9994 -0.0148 0.0326
vn -0.0005 0.0075 1.0000
vn 0.0007 -0.9997 -0.0250
vn 0.0042 1.0000 0.0045
vn 1.0000 0.0000 0.0000
vn -0.0000 -0.0000 1.0000
vn -0.0000 -1.0000 0.0000
vn -0.0000 1.0000 -0.0000
usemtl Material
s off
f 1/1/1 5/2/1 7/3/1 3/4/1
f 4/5/2 3/6/2 7/7/2 8/8/2
f 8/8/3 7/7/3 5/9/3 6/10/3
f 6/10/4 2/11/4 4/12/4 8/13/4
f 2/14/5 1/15/5 3/16/5 4/17/5
f 6/18/6 5/19/6 1/20/6 2/11/6
f 9/21/7 10/22/7 12/23/7 11/24/7
f 11/24/8 12/23/8 16/25/8 15/26/8
f 15/26/9 16/25/9 14/27/9 13/28/9
f 13/28/10 14/27/10 10/29/10 9/30/10
f 11/31/11 15/26/11 13/28/11 9/32/11
f 16/25/12 12/33/12 10/34/12 14/27/12
f 17/35/13 18/36/13 20/37/13 19/38/13
f 19/38/14 20/37/14 24/39/14 23/40/14
f 23/40/15 24/39/15 22/41/15 21/42/15
f 21/42/16 22/41/16 18/43/16 17/44/16
f 19/45/17 23/40/17 21/42/17 17/46/17
f 24/39/18 20/47/18 18/48/18 22/41/18
f 25/49/7 26/50/7 28/51/7 27/52/7
f 27/52/14 28/51/14 32/53/14 31/54/14
f 31/54/19 32/53/19 30/55/19 29/56/19
f 29/56/20 30/55/20 26/57/20 25/58/20
f 27/59/21 31/54/21 29/56/21 25/60/21
f 32/53/22 28/61/22 26/62/22 30/55/22
