mtllib materials.mtl
v -0.04769818 0.01456332 -0.007226467
v -0.03052929 0.0401752 -0.005182683
v -0.03106651 0.0401386 -0.0002117753
v -0.0482354 0.01452684 -0.002255559
v -0.001663849 0.05073357 -0.00198549
v -0.002201065 0.05069709 0.002985448
v 0.02787247 0.04220569 0.001143903
v 0.02733526 0.04216909 0.006114811
v 0.04679784 0.01784861 0.003010154
v 0.04626063 0.01781213 0.007981062
v 0.04788342 -0.01303375 0.002900422
v 0.0473462 -0.01307034 0.00787133
v 0.03071451 -0.03864563 0.0008566082
v 0.0301773 -0.03868222 0.005827516
v 0.001849085 -0.04920399 -0.002340585
v 0.001311868 -0.04924059 0.002630323
v -0.02768725 -0.040676 -0.005469978
v -0.02822448 -0.04071259 -0.0004990399
v -0.04661262 -0.01631904 -0.007336199
v -0.04714985 -0.01635563 -0.002365291
v -0.03390314 0.009489298 -0.007998377
v -0.02201924 0.02750063 -0.006490499
v -0.02256471 0.02744448 -0.001520634
v -0.03444861 0.00943315 -0.003028542
v -0.001872078 0.03503239 -0.004194081
v -0.002417549 0.03497624 0.0007757545
v 0.01884282 0.02920771 -0.001986295
v 0.01829734 0.02915156 0.00298357
v 0.03221306 0.01225138 -0.0007104278
v 0.03166756 0.01219511 0.004259408
v 0.03313166 -0.009359837 -0.0008538067
v 0.03258619 -0.009415984 0.004116029
v 0.02124774 -0.02737117 -0.002361715
v 0.02070227 -0.02742732 0.00260812
v 0.0011006 -0.03490293 -0.004658133
v 0.000555113 -0.03495908 0.0003117323
v -0.01961429 -0.02907813 -0.006865919
v -0.02015978 -0.02913439 -0.001896083
v -0.03298452 -0.0121218 -0.008141786
v -0.03353 -0.01217806 -0.003171921
v -0.02325769 0.006425261 -0.00788492
v -0.01488978 0.01937902 -0.006933033
v -0.01538368 0.01933241 -0.001957685
v -0.0237516 0.006378651 -0.002909571
v -0.0005382895 0.02490926 -0.005456597
v -0.001032189 0.02486277 -0.0004812777
v 0.01431495 0.02090371 -0.004019588
v 0.01382104 0.0208571 0.0009557307
v 0.02399653 0.008892179 -0.003170878
v 0.02350265 0.008845687 0.001804441
v 0.02480844 -0.006537199 -0.003234655
v 0.02431452 -0.006583691 0.001740664
v 0.01644051 -0.01949096 -0.004186541
v 0.0159466 -0.01953745 0.0007887781
v 0.002089038 -0.0250212 -0.005662978
v 0.00159514 -0.02506781 -0.000687629
v -0.01276422 -0.02101564 -0.007099986
v -0.01325811 -0.02106214 -0.002124637
v -0.0224458 -0.009004116 -0.007948667
v -0.02293971 -0.009050727 -0.002973348
v -0.01360282 0.003700495 -0.007360339
v -0.008556679 0.0114646 -0.006916076
v -0.008980557 0.01145506 -0.001934081
v -0.0140267 0.003690958 -0.002378345
v 7.343292E-05 0.01476848 -0.006175458
v -0.0003504455 0.01475883 -0.001193464
v 0.008991092 0.01234996 -0.00542137
v 0.008567214 0.01234043 -0.0004393756
v 0.01479006 0.005133033 -0.004941851
v 0.01436618 0.005123377 4.014373E-05
v 0.01525533 -0.004125834 -0.004920065
v 0.01483145 -0.00413537 6.192923E-05
v 0.01020917 -0.01188993 -0.005364329
v 0.009785295 -0.01189947 -0.000382334
v 0.001579076 -0.0151937 -0.006104946
v 0.001155198 -0.01520324 -0.001122952
v -0.007338598 -0.01277518 -0.006859034
v -0.007762477 -0.01278484 -0.00187704
v -0.01313756 -0.005558252 -0.007338554
v -0.01356144 -0.005567789 -0.002356559
v -0.008495912 0.002117395 -0.007455826
v -0.00515677 0.007311225 -0.007190108
v -0.005597368 0.007339716 -0.002209634
v -0.008936509 0.002145886 -0.002475351
v 0.0005847216 0.009544373 -0.006694973
v 0.000144124 0.009572744 -0.001714498
v 0.006535485 0.007963777 -0.006159484
v 0.006094888 0.007992148 -0.00117901
v 0.01042253 0.003173113 -0.005788237
v 0.00998193 0.003201604 -0.0008077621
v 0.01076117 -0.002997518 -0.005723
v 0.01032057 -0.002969146 -0.0007425249
v 0.007422 -0.008191466 -0.005988687
v 0.006981418 -0.008162975 -0.001008242
v 0.001680523 -0.01042449 -0.006483853
v 0.001239926 -0.010396 -0.001503378
v -0.004270241 -0.008843899 -0.007019341
v -0.004710838 -0.008815408 -0.002038866
v -0.008157283 -0.004053354 -0.007390589
v -0.008597896 -0.004024863 -0.002410114
vn -0.8244801 0.5594724 -0.08499068
vn -0.3404464 0.9397889 -0.02988363
vn 0.2736262 0.9611381 0.0366382
vn 0.7831829 0.6153651 0.08916514
vn 0.9935903 0.03454368 0.1076343
vn 0.82448 -0.5594724 0.08499067
vn 0.3404464 -0.939789 0.02988344
vn -0.2736263 -0.961138 -0.03663843
vn -0.7831829 -0.6153651 -0.08916513
vn -0.9935903 -0.03454362 -0.1076342
vn 0.1074445 0.007309467 -0.9941843
vn -0.1074445 -0.007309468 0.9941843
vn -0.8284153 0.5536782 -0.08466776
vn -0.3472805 0.9373573 -0.02752388
vn 0.2665039 0.9629979 0.0401336
vn 0.7784927 0.6208061 0.09246086
vn 0.9931238 0.04148727 0.1094715
vn 0.8284153 -0.5536782 0.08466774
vn 0.3472803 -0.9373574 0.0275237
vn -0.2665039 -0.9629979 -0.04013351
vn -0.7784927 -0.620806 -0.09246094
vn -0.9931238 -0.04148727 -0.1094716
vn 0.1090954 0.01123258 -0.9939678
vn -0.1090954 -0.01123258 0.9939678
vn -0.8348233 0.5449966 -0.07777379
vn -0.3570516 0.9337028 -0.02670833
vn 0.2571019 0.9657662 0.03455894
vn 0.773051 0.6289397 0.08262569
vn 0.9937209 0.05187969 0.09913236
vn 0.8348233 -0.5449967 0.07777379
vn 0.3570515 -0.9337028 0.02670823
vn -0.257102 -0.9657662 -0.03455906
vn -0.773051 -0.6289397 -0.08262569
vn -0.9937209 -0.05187963 -0.09913234
vn 0.09878046 0.009310453 -0.9950657
vn -0.09878045 -0.009310454 0.9950657
vn -0.834581 0.5464252 -0.06995729
vn -0.3552452 0.9343408 -0.02842838
vn 0.2597823 0.96537 0.02395918
vn 0.7755817 0.6276606 0.06719512
vn 0.9951354 0.05020611 0.08476481
vn 0.834581 -0.5464253 0.06995727
vn 0.3552451 -0.9343408 0.02842839
vn -0.2597824 -0.96537 -0.02395897
vn -0.7755818 -0.6276606 -0.06719501
vn -0.9951354 -0.05020608 -0.08476482
vn 0.08477559 0.001915813 -0.9963982
vn -0.08477559 -0.001915812 0.9963982
vn -0.8368548 0.5419638 -0.07713112
vn -0.3594578 0.9324224 -0.03713033
vn 0.25524 0.9667274 0.0170531
vn 0.772445 0.6317751 0.06472277
vn 0.9946019 0.05550642 0.0876705
vn 0.8368548 -0.541964 0.07713112
vn 0.3594576 -0.9324225 0.0371303
vn -0.2552403 -0.9667273 -0.01705311
vn -0.7724449 -0.6317751 -0.06472276
vn -0.994602 -0.05550654 -0.0876705
vn 0.08811973 -0.005694774 -0.9960937
vn -0.08811975 0.005694777 0.9960936
vt -0.08724935 0.09177887
vt -0.08861481 0.09455099
vt -0.08906335 0.09433005
vt -0.08769788 0.09155793
vt -0.06225631 0.04835378
vt -0.06349249 0.05118592
vt -0.06395075 0.0509859
vt -0.06271455 0.04815376
vt -0.02753875 -0.02745444
vt -0.02912155 -0.02480041
vt -0.02955098 -0.02505651
vt -0.02796818 -0.02771054
vt 0.06377346 -0.06785469
vt 0.0609265 -0.066653
vt 0.06073207 -0.06711365
vt 0.06357902 -0.06831533
vt 0.1179964 0.06409685
vt 0.1158046 0.06191854
vt 0.116157 0.06156389
vt 0.1183489 0.06374221
vt 0.08861481 0.09455098
vt 0.08724934 0.09177887
vt 0.08769788 0.09155793
vt 0.08906335 0.09433004
vt 0.06349248 0.05118591
vt 0.06225629 0.04835378
vt 0.06271453 0.04815376
vt 0.06395072 0.0509859
vt 0.02912151 -0.0248004
vt 0.02753871 -0.02745444
vt 0.02796814 -0.02771054
vt 0.02955095 -0.02505651
vt -0.0609265 -0.066653
vt -0.06377345 -0.06785468
vt -0.06357901 -0.06831532
vt -0.06073206 -0.06711365
vt -0.1158046 0.06191855
vt -0.1179964 0.06409685
vt -0.1183489 0.06374221
vt -0.116157 0.0615639
vt -0.1013935 0.07963268
vt -0.09835531 0.08019716
vt -0.09622917 0.08243964
vt -0.09582718 0.08550355
vt -0.0973029 0.08821858
vt -0.1000926 0.08954769
vt -0.1031308 0.08898322
vt -0.1052569 0.08674073
vt -0.1056589 0.08367682
vt -0.1041832 0.08096178
vt 0.1041832 0.08096179
vt 0.1056589 0.08367682
vt 0.1052569 0.08674074
vt 0.1031308 0.08898321
vt 0.1000926 0.0895477
vt 0.09730289 0.08821858
vt 0.09582718 0.08550355
vt 0.09622917 0.08243964
vt 0.09835531 0.08019716
vt 0.1013935 0.07963267
vt -0.08743071 0.09241705
vt -0.08839691 0.09435238
vt -0.08884427 0.09412904
vt -0.08787806 0.09219371
vt -0.06219567 0.04962699
vt -0.0630668 0.05160695
vt -0.06352445 0.0514056
vt -0.06265334 0.04942564
vt -0.02755264 -0.02591729
vt -0.02866168 -0.02406012
vt -0.02909097 -0.02431647
vt -0.02798193 -0.02617365
vt 0.0622273 -0.0674833
vt 0.06024492 -0.0666177
vt 0.06004483 -0.06707592
vt 0.06202722 -0.06794153
vt 0.1178448 0.06266333
vt 0.1162906 0.06115878
vt 0.1166384 0.06079954
vt 0.1181926 0.06230408
vt 0.08839691 0.09435238
vt 0.0874307 0.09241705
vt 0.08787805 0.09219371
vt 0.08884426 0.09412905
vt 0.06306677 0.05160693
vt 0.06219565 0.04962698
vt 0.06265331 0.04942562
vt 0.06352443 0.05140558
vt 0.0286617 -0.02406012
vt 0.02755265 -0.0259173
vt 0.02798194 -0.02617365
vt 0.02909098 -0.02431647
vt -0.06024494 -0.06661768
vt -0.06222732 -0.06748328
vt -0.06202723 -0.0679415
vt -0.06004485 -0.0670759
vt -0.1162906 0.06115878
vt -0.1178448 0.06266331
vt -0.1181926 0.06230407
vt -0.1166384 0.06079953
vt -0.1013405 0.08102275
vt -0.09921707 0.0814352
vt -0.09774161 0.08301701
vt -0.0974777 0.08516397
vt -0.09852615 0.08705602
vt -0.1004865 0.08797046
vt -0.1026099 0.087558
vt -0.1040854 0.0859762
vt -0.1043493 0.08382924
vt -0.1033008 0.08193718
vt 0.1033008 0.08193719
vt 0.1043493 0.08382924
vt 0.1040854 0.0859762
vt 0.1026099 0.08755801
vt 0.1004865 0.08797045
vt 0.09852615 0.08705603
vt 0.09747771 0.08516397
vt 0.09774161 0.08301701
vt 0.09921707 0.0814352
vt 0.1013405 0.08102275
vt -0.08727024 0.09347652
vt -0.08794869 0.09486467
vt -0.08839791 0.09464512
vt -0.08771946 0.09325696
vt -0.06249958 0.05117876
vt -0.06310673 0.05259956
vt -0.06356651 0.05240308
vt -0.06295936 0.05098229
vt -0.02904963 -0.02443421
vt -0.02981942 -0.02309454
vt -0.03025294 -0.02334365
vt -0.02948316 -0.02468331
vt 0.05869803 -0.06930046
vt 0.0573028 -0.06863666
vt 0.05708799 -0.06908817
vt 0.05848321 -0.06975196
vt 0.1175293 0.06199973
vt 0.1164205 0.06092366
vt 0.1167688 0.06056486
vt 0.1178775 0.06164093
vt 0.08794869 0.09486466
vt 0.08727024 0.0934765
vt 0.08771946 0.09325696
vt 0.08839791 0.09464511
vt 0.06310672 0.05259956
vt 0.06249956 0.05117876
vt 0.06295934 0.05098229
vt 0.06356649 0.05240308
vt 0.0298194 -0.02309454
vt 0.02904961 -0.02443421
vt 0.02948314 -0.02468332
vt 0.03025293 -0.02334365
vt -0.05730279 -0.06863666
vt -0.05869802 -0.06930047
vt -0.05848321 -0.06975196
vt -0.05708798 -0.06908817
vt -0.1164205 0.06092368
vt -0.1175293 0.06199976
vt -0.1178775 0.06164094
vt -0.1167688 0.06056488
vt -0.1013548 0.08158971
vt -0.09984161 0.08190192
vt -0.09880091 0.08304395
vt -0.09863022 0.08457957
vt -0.09939475 0.08592225
vt -0.1008025 0.08655911
vt -0.1023157 0.08624691
vt -0.1033564 0.08510488
vt -0.1035271 0.08356925
vt -0.1027626 0.08222658
vt 0.1027626 0.08222658
vt 0.1035271 0.08356925
vt 0.1033564 0.08510488
vt 0.1023157 0.0862469
vt 0.1008025 0.08655911
vt 0.09939475 0.08592225
vt 0.09863023 0.08457957
vt 0.09880091 0.08304395
vt 0.09984162 0.08190192
vt 0.1013548 0.08158971
vt -0.08661944 0.09419177
vt -0.08701158 0.09503181
vt -0.08746465 0.09482031
vt -0.08707251 0.09398028
vt -0.06268241 0.05122631
vt -0.06303311 0.05208447
vt -0.06349595 0.05189533
vt -0.06314526 0.05103717
vt -0.03044746 -0.02482892
vt -0.03089441 -0.02401672
vt -0.03133246 -0.02425779
vt -0.03088551 -0.02506998
vt 0.05712109 -0.07126598
vt 0.05628967 -0.07085589
vt 0.05606849 -0.07130431
vt 0.05689991 -0.07171441
vt 0.1165347 0.06358188
vt 0.1158854 0.06292019
vt 0.1162423 0.06257
vt 0.1168916 0.06323168
vt 0.08701159 0.09503179
vt 0.08661944 0.09419176
vt 0.08707251 0.09398027
vt 0.08746465 0.0948203
vt 0.06303311 0.05208445
vt 0.06268241 0.0512263
vt 0.06314526 0.05103715
vt 0.06349595 0.05189531
vt 0.03089444 -0.02401675
vt 0.03044748 -0.02482894
vt 0.03088554 -0.02507
vt 0.03133249 -0.02425781
vt -0.05628966 -0.07085592
vt -0.05712108 -0.07126601
vt -0.05689989 -0.07171442
vt -0.05606847 -0.07130433
vt -0.1158854 0.0629202
vt -0.1165347 0.06358188
vt -0.1168916 0.06323169
vt -0.1162423 0.06257001
vt -0.1012247 0.08197708
vt -0.1003164 0.08216276
vt -0.09969079 0.08284684
vt -0.09958672 0.08376803
vt -0.100044 0.08457447
vt -0.1008879 0.08495811
vt -0.1017962 0.08477242
vt -0.1024219 0.08408834
vt -0.1025259 0.08316714
vt -0.1020686 0.08236071
vt 0.1020687 0.08236071
vt 0.1025259 0.08316715
vt 0.1024219 0.08408834
vt 0.1017962 0.08477242
vt 0.1008879 0.08495811
vt 0.100044 0.08457447
vt 0.09958673 0.08376803
vt 0.09969079 0.08284685
vt 0.1003164 0.08216275
vt 0.1012247 0.08197708
vt -0.08745127 0.09404998
vt -0.08771261 0.09461004
vt -0.08816572 0.09439861
vt -0.08790437 0.09383856
vt -0.06371237 0.05165983
vt -0.06394582 0.05223208
vt -0.06440878 0.05204321
vt -0.06417532 0.05147097
vt -0.03173266 -0.02423776
vt -0.03202987 -0.02369588
vt -0.03246826 -0.02393634
vt -0.03217104 -0.02447821
vt 0.05550481 -0.07179268
vt 0.05495173 -0.07151687
vt 0.0547286 -0.07196432
vt 0.05528168 -0.07224013
vt 0.116749 0.06236253
vt 0.1163155 0.061922
vt 0.1166719 0.06157131
vt 0.1171054 0.06201184
vt 0.0877126 0.09461005
vt 0.08745126 0.09404998
vt 0.08790436 0.09383856
vt 0.08816569 0.09439861
vt 0.06394581 0.05223205
vt 0.06371236 0.05165981
vt 0.06417532 0.05147094
vt 0.06440876 0.05204319
vt 0.03202986 -0.02369592
vt 0.03173264 -0.02423779
vt 0.03217102 -0.02447825
vt 0.03246824 -0.02393638
vt -0.05495173 -0.07151687
vt -0.05550481 -0.07179268
vt -0.05528168 -0.07224013
vt -0.0547286 -0.07196433
vt -0.1163155 0.06192198
vt -0.116749 0.06236251
vt -0.1171054 0.06201183
vt -0.1166719 0.06157129
vt -0.1005283 0.0828058
vt -0.09992298 0.08293076
vt -0.09950676 0.08338762
vt -0.09943856 0.08400188
vt -0.09974445 0.08453891
vt -0.1003076 0.08479358
vt -0.1009128 0.08466862
vt -0.1013291 0.08421176
vt -0.1013973 0.0835975
vt -0.1010914 0.08306047
vt 0.1010914 0.08306047
vt 0.1013973 0.0835975
vt 0.1013291 0.08421175
vt 0.1009128 0.08466862
vt 0.1003076 0.08479358
vt 0.09974445 0.08453891
vt 0.09943856 0.08400188
vt 0.09950677 0.08338762
vt 0.09992299 0.08293076
vt 0.1005283 0.0828058
o group1434662338
g mesh1434662338
usemtl mat20
f 4/4/1 3/3/1 2/2/1 1/1/1
f 3/8/2 6/7/2 5/6/2 2/5/2
f 6/12/3 8/11/3 7/10/3 5/9/3
f 8/16/4 10/15/4 9/14/4 7/13/4
f 10/20/5 12/19/5 11/18/5 9/17/5
f 12/24/6 14/23/6 13/22/6 11/21/6
f 14/28/7 16/27/7 15/26/7 13/25/7
f 16/32/8 18/31/8 17/30/8 15/29/8
f 18/36/9 20/35/9 19/34/9 17/33/9
f 20/40/10 4/39/10 1/38/10 19/37/10
f 1/50/11 2/49/11 5/48/11 7/47/11 9/46/11 11/45/11 13/44/11 15/43/11 17/42/11 19/41/11
f 20/60/12 18/59/12 16/58/12 14/57/12 12/56/12 10/55/12 8/54/12 6/53/12 3/52/12 4/51/12
usemtl mat21
f 24/64/13 23/63/13 22/62/13 21/61/13
f 23/68/14 26/67/14 25/66/14 22/65/14
f 26/72/15 28/71/15 27/70/15 25/69/15
f 28/76/16 30/75/16 29/74/16 27/73/16
f 30/80/17 32/79/17 31/78/17 29/77/17
f 32/84/18 34/83/18 33/82/18 31/81/18
f 34/88/19 36/87/19 35/86/19 33/85/19
f 36/92/20 38/91/20 37/90/20 35/89/20
f 38/96/21 40/95/21 39/94/21 37/93/21
f 40/100/22 24/99/22 21/98/22 39/97/22
f 21/110/23 22/109/23 25/108/23 27/107/23 29/106/23 31/105/23 33/104/23 35/103/23 37/102/23 39/101/23
f 40/120/24 38/119/24 36/118/24 34/117/24 32/116/24 30/115/24 28/114/24 26/113/24 23/112/24 24/111/24
f 64/184/37 63/183/37 62/182/37 61/181/37
f 63/188/38 66/187/38 65/186/38 62/185/38
f 66/192/39 68/191/39 67/190/39 65/189/39
f 68/196/40 70/195/40 69/194/40 67/193/40
f 70/200/41 72/199/41 71/198/41 69/197/41
f 72/204/42 74/203/42 73/202/42 71/201/42
f 74/208/43 76/207/43 75/206/43 73/205/43
f 76/212/44 78/211/44 77/210/44 75/209/44
f 78/216/45 80/215/45 79/214/45 77/213/45
f 80/220/46 64/219/46 61/218/46 79/217/46
f 61/230/47 62/229/47 65/228/47 67/227/47 69/226/47 71/225/47 73/224/47 75/223/47 77/222/47 79/221/47
f 80/240/48 78/239/48 76/238/48 74/237/48 72/236/48 70/235/48 68/234/48 66/233/48 63/232/48 64/231/48
usemtl mat8
f 44/124/25 43/123/25 42/122/25 41/121/25
f 43/128/26 46/127/26 45/126/26 42/125/26
f 46/132/27 48/131/27 47/130/27 45/129/27
f 48/136/28 50/135/28 49/134/28 47/133/28
f 50/140/29 52/139/29 51/138/29 49/137/29
f 52/144/30 54/143/30 53/142/30 51/141/30
f 54/148/31 56/147/31 55/146/31 53/145/31
f 56/152/32 58/151/32 57/150/32 55/149/32
f 58/156/33 60/155/33 59/154/33 57/153/33
f 60/160/34 44/159/34 41/158/34 59/157/34
f 41/170/35 42/169/35 45/168/35 47/167/35 49/166/35 51/165/35 53/164/35 55/163/35 57/162/35 59/161/35
f 60/180/36 58/179/36 56/178/36 54/177/36 52/176/36 50/175/36 48/174/36 46/173/36 43/172/36 44/171/36
f 84/244/49 83/243/49 82/242/49 81/241/49
f 83/248/50 86/247/50 85/246/50 82/245/50
f 86/252/51 88/251/51 87/250/51 85/249/51
f 88/256/52 90/255/52 89/254/52 87/253/52
f 90/260/53 92/259/53 91/258/53 89/257/53
f 92/264/54 94/263/54 93/262/54 91/261/54
f 94/268/55 96/267/55 95/266/55 93/265/55
f 96/272/56 98/271/56 97/270/56 95/269/56
f 98/276/57 100/275/57 99/274/57 97/273/57
f 100/280/58 84/279/58 81/278/58 99/277/58
f 81/290/59 82/289/59 85/288/59 87/287/59 89/286/59 91/285/59 93/284/59 95/283/59 97/282/59 99/281/59
f 100/300/60 98/299/60 96/298/60 94/297/60 92/296/60 90/295/60 88/294/60 86/293/60 83/292/60 84/291/60
